<svg xmlns="http://www.w3.org/2000/svg" version="1.1" xmlns:xlink="http://www.w3.org/1999/xlink" xmlns:svgjs="http://svgjs.dev/svgjs" width="2000" height="1500" viewBox="0 0 2000 1500"><rect width="2000" height="1500" fill="#31c48d"></rect><g transform="matrix(0.4444444444444444,0,0,0.4444444444444444,555.5565340925066,250)"><svg viewBox="0 0 320 360" data-background-color="#31c48d" preserveAspectRatio="xMidYMid meet" height="2250" width="2000" xmlns="http://www.w3.org/2000/svg" xmlns:xlink="http://www.w3.org/1999/xlink"><g id="tight-bounds" transform="matrix(1,0,0,1,0.00010353528136874957,0)"><svg viewBox="0 0 320 360" height="360" width="320"><g><svg></svg></g><g><svg viewBox="0 0 320 360" height="360" width="320"><g><path xmlns="http://www.w3.org/2000/svg" d="M307.925 179.999l6.575-11.387c11.322-19.607 4.604-44.679-15.003-56.001l-11.387-6.575v-13.151c0-22.639-18.354-40.994-40.994-40.994h-13.151l-6.575-11.387c-11.322-19.607-36.393-26.325-56.001-15.003l-11.39 6.572-11.387-6.576c-19.607-11.318-44.679-4.6-56.001 15.007l-6.575 11.387h-13.151c-22.639 0-40.994 18.354-40.994 40.994v13.151l-11.387 6.575c-19.607 11.322-26.325 36.393-15.003 56.001l6.572 11.387-6.576 11.387c-11.318 19.607-4.6 44.679 15.007 56l11.387 6.576v13.15c0 22.639 18.354 40.994 40.994 40.994h13.151l6.575 11.387c11.322 19.607 36.393 26.325 56.001 15.003l11.387-6.571 11.387 6.575c19.607 11.322 44.679 4.604 56-15.003l6.576-11.387h13.15c22.639 0 40.994-18.354 40.994-40.994v-13.151l11.387-6.575c19.607-11.322 26.325-36.393 15.003-56.001zM297.702 115.716c8.655 4.996 14.842 13.062 17.428 22.713 2.586 9.65 1.261 19.734-3.735 28.384l-5.538 9.596-17.747-30.74v-35.494zM251.155 271.155l-57.791 33.365h-66.731l-57.791-33.365-33.365-57.791v-66.731l33.365-57.791 57.791-33.365h66.731l57.791 33.365 33.365 57.791v66.731zM284.517 220.539v31.351l-27.151 15.676zM247.566 277.366l-15.676 27.151h-31.351zM187.15 308.106l-27.151 15.676-27.151-15.676zM119.459 304.517h-31.352l-15.676-27.151zM62.632 267.566l-27.151-15.676v-31.351zM31.891 207.15l-15.675-27.151 15.675-27.151zM35.481 139.459v-31.352l27.151-15.676zM72.431 82.632l15.676-27.151h31.352zM132.848 51.891l27.151-15.675 27.151 15.675zM200.539 55.481h31.351l15.676 27.151zM257.366 92.431l27.151 15.676v31.352zM288.106 152.848l15.676 27.151-15.676 27.151zM247.112 55.481c9.992 0 19.384 3.889 26.452 10.956 7.063 7.063 10.956 16.46 10.957 26.452v11.079l-30.741-17.747-17.747-30.74zM173.18 28.606c8.655-4.996 18.735-6.322 28.385-3.735 9.65 2.586 17.716 8.777 22.712 17.428l5.538 9.596h-35.494l-30.741-17.747zM95.716 42.295c4.996-8.655 13.062-14.842 22.713-17.428 9.65-2.586 19.734-1.261 28.384 3.736l9.596 5.537-30.74 17.747h-35.494zM35.481 92.885c0-9.992 3.889-19.384 10.956-26.452 7.063-7.063 16.46-10.956 26.452-10.956h11.079l-17.747 30.74-30.74 17.747zM8.606 166.817c-4.996-8.655-6.322-18.735-3.735-28.385 2.586-9.65 8.777-17.716 17.428-22.712l9.596-5.538v35.495l-17.747 30.74zM22.295 244.281c-8.655-4.996-14.842-13.062-17.428-22.712-2.586-9.65-1.261-19.734 3.736-28.385l5.537-9.596 17.747 30.74v35.495zM72.885 304.517c-9.992 0-19.384-3.889-26.452-10.957-7.063-7.063-10.956-16.46-10.956-26.451v-11.08l30.74 17.747 17.747 30.741zM146.817 331.391c-8.655 4.996-18.735 6.322-28.385 3.735-9.65-2.586-17.716-8.777-22.712-17.428l-5.538-9.596h35.495l30.74 17.747zM224.281 317.702c-4.996 8.655-13.062 14.842-22.712 17.428-9.65 2.586-19.734 1.261-28.385-3.735l-9.596-5.538 30.74-17.747h35.495zM284.517 267.112c0 9.992-3.889 19.384-10.957 26.452-7.063 7.063-16.46 10.956-26.451 10.957h-11.08l17.747-30.741 30.741-17.747zM315.13 221.565c-2.586 9.65-8.777 17.716-17.428 22.712l-9.596 5.538v-35.494l17.747-30.741 5.538 9.596c4.996 8.658 6.326 18.739 3.739 28.389z" fill="#ffffff" fill-rule="nonzero" stroke="none" stroke-width="1" stroke-linecap="butt" stroke-linejoin="miter" stroke-miterlimit="10" stroke-dasharray="" stroke-dashoffset="0" font-family="none" font-weight="none" font-size="none" text-anchor="none" style="mix-blend-mode: normal" data-fill-palette-color="tertiary"></path></g><g transform="matrix(1,0,0,1,98.01139034407554,90)"><svg viewBox="0 0 123.97721931184893 180" height="180" width="123.97721931184893"><g><svg viewBox="0 0 123.97721931184893 180" height="180" width="123.97721931184893"><g><svg viewBox="0 0 237.312 344.5484600888889" height="180" width="123.97721931184893"><g transform="matrix(1,0,0,1,22.656000000000006,257.79290453333334)"><svg viewBox="0 0 192 86.75555555555556" height="86.75555555555556" width="192"><g id="textblocktransform"><svg viewBox="0 0 192 86.75555555555556" height="86.75555555555556" width="192" id="textblock"><g><svg viewBox="0 0 192 86.75555555555556" height="86.75555555555556" width="192"><g transform="matrix(1,0,0,1,0,0)"><svg width="192" viewBox="1.7999999523162842 -37.79999923706055 107.98999786376953 48.79999923706055" height="86.75555555555556" data-palette-color="#ffffff"><path d="M31.7-34.6L34.1 0 27.15 0 26.6-14.15Q26.3-19.55 26.3-24.65L26.3-24.65Q26.3-27.05 26.35-28.15L26.35-28.15 21.35-3.7 14.55-3.7 9.3-28.2Q9.45-25.05 9.45-22L9.45-22Q9.45-19.45 9.25-13.95L9.25-13.95 8.7 0 1.8 0 4.2-34.6 13.25-34.6 18.1-10.65 22.55-34.6 31.7-34.6ZM59.5-26.5L51.85 0.05Q50.4 5.05 47.2 7.8 44 10.55 38.55 11L38.55 11 37.8 6.05Q41.25 5.5 42.92 4.17 44.6 2.85 45.6 0L45.6 0 43.1 0 35.8-26.5 43-26.5 47.55-4.55 52.5-26.5 59.5-26.5ZM76.15-27.3Q79.3-27.3 81.07-25.23 82.84-23.15 82.84-19.55L82.84-19.55 82.84 0 75.9 0 75.9-18.6Q75.9-20.45 75.32-21.25 74.75-22.05 73.65-22.05L73.65-22.05Q71.4-22.05 69.3-18.4L69.3-18.4 69.3 0 62.35 0 62.35-26.5 68.4-26.5 68.9-23.15Q70.4-25.2 72.12-26.25 73.84-27.3 76.15-27.3L76.15-27.3ZM102.84-37.8L109.79-37.05 109.79 0 103.59 0 103.29-3.15Q100.74 0.8 96.54 0.8L96.54 0.8Q92.09 0.8 89.74-2.9 87.39-6.6 87.39-13.25L87.39-13.25Q87.39-17.45 88.62-20.63 89.84-23.8 92.04-25.55 94.24-27.3 97.09-27.3L97.09-27.3Q100.54-27.3 102.84-24.65L102.84-24.65 102.84-37.8ZM98.59-4.35Q99.89-4.35 100.92-5.13 101.94-5.9 102.84-7.45L102.84-7.45 102.84-19.65Q101.94-20.9 101.04-21.53 100.14-22.15 98.94-22.15L98.94-22.15Q96.89-22.15 95.74-20.03 94.59-17.9 94.59-13.25L94.59-13.25Q94.59-8.4 95.64-6.38 96.69-4.35 98.59-4.35L98.59-4.35Z" opacity="1" transform="matrix(1,0,0,1,0,0)" fill="#ffffff" class="undefined-text-0" data-fill-palette-color="primary" id="text-0"></path></svg></g></svg></g></svg></g></svg></g><g><svg viewBox="0 0 237.312 237.312" height="237.312" width="237.312"><g><svg xmlns="http://www.w3.org/2000/svg" xmlns:xlink="http://www.w3.org/1999/xlink" version="1.1" x="0" y="0" viewBox="5 5 90 90" enable-background="new 0 0 100 100" xml:space="preserve" height="237.312" width="237.312" class="icon-icon-0" data-fill-palette-color="accent" id="icon-0"><path fill="#ffffff" d="M95 52c0-12.871-5.692-24.431-14.682-32.318C72.431 10.692 60.871 5 48 5 24.29 5 5 24.29 5 48c0 12.868 5.69 24.426 14.677 32.313C27.564 89.306 39.126 95 52 95c0.084 0 0.166-0.006 0.25-0.006S52.416 95 52.5 95C75.972 95 95 75.972 95 52.5c0-0.084-0.006-0.166-0.006-0.25S95 52.084 95 52zM21.828 73.371c-4.245-5.978-6.77-13.259-6.822-21.121 0.135-20.511 16.732-37.109 37.244-37.244 7.862 0.052 15.144 2.577 21.121 6.822C80.224 28.473 84.5 37.758 84.5 48c0 20.126-16.374 36.5-36.5 36.5C37.758 84.5 28.473 80.224 21.828 73.371zM6 48C6 24.841 24.841 6 48 6c9.858 0 18.926 3.422 26.1 9.13C67.637 11.242 60.076 9 52 9 28.29 9 9 28.29 9 52c0 8.074 2.241 15.633 6.127 22.095C9.421 66.923 6 57.856 6 48zM52 89c-10.08 0-19.227-4.055-25.905-10.615C32.269 82.854 39.838 85.5 48 85.5c20.678 0 37.5-16.822 37.5-37.5 0-8.162-2.646-15.731-7.115-21.905C84.945 32.773 89 41.92 89 52 89 72.402 72.402 89 52 89z" data-fill-palette-color="accent"></path></svg></g></svg></g><g></g></svg></g></svg></g></svg></g></svg></g><defs></defs></svg><rect width="320" height="360" fill="none" stroke="none" visibility="hidden"></rect></g></svg></g></svg>