<?xml version="1.0" encoding="UTF-8" standalone="no"?>
<!DOCTYPE svg PUBLIC "-//W3C//DTD SVG 1.1//EN" "http://www.w3.org/Graphics/SVG/1.1/DTD/svg11.dtd">
<!-- Created with Vectornator (http://vectornator.io/) -->
<svg height="100%" stroke-miterlimit="10" style="fill-rule:nonzero;clip-rule:evenodd;stroke-linecap:round;stroke-linejoin:round;" version="1.1" viewBox="0 0 2050 2050" width="100%" xml:space="preserve" xmlns="http://www.w3.org/2000/svg" xmlns:xlink="http://www.w3.org/1999/xlink">
<defs/>
<g id="Untitled">
<g opacity="1">
<path d="M1949.53 1024.99L1990.63 953.831C2061.39 831.282 2019.4 674.582 1896.86 603.82L1825.69 562.726L1825.69 480.532C1825.69 339.038 1710.98 224.32 1569.48 224.32L1487.28 224.32L1446.19 153.151C1375.43 30.6069 1218.73-11.3804 1096.18 59.3819L1024.99 100.457L953.826 59.3569C831.282-11.3804 674.582 30.6069 603.82 153.151L562.726 224.32L480.532 224.32C339.038 224.32 224.32 339.032 224.32 480.532L224.32 562.726L153.151 603.82C30.6069 674.582-11.3806 831.276 59.3819 953.831L100.457 1024.99L59.3569 1096.16C-11.3806 1218.71 30.6069 1375.41 153.151 1446.16L224.32 1487.26L224.32 1569.45C224.32 1710.94 339.032 1825.66 480.532 1825.66L562.726 1825.66L603.82 1896.83C674.582 2019.38 831.276 2061.36 953.826 1990.6L1024.99 1949.53L1096.17 1990.62C1218.71 2061.39 1375.41 2019.4 1446.17 1896.86L1487.27 1825.69L1569.45 1825.69C1710.95 1825.69 1825.67 1710.97 1825.67 1569.47L1825.67 1487.28L1896.83 1446.19C2019.38 1375.42 2061.37 1218.73 1990.6 1096.18L1949.53 1024.99ZM1885.64 623.226C1939.73 654.451 1978.4 704.863 1994.57 765.182C2010.73 825.495 2002.45 888.52 1971.22 942.581L1936.61 1002.56L1825.69 810.432L1825.69 588.595L1885.64 623.226ZM1594.72 1594.72L1233.53 1803.25L816.457 1803.25L455.263 1594.72L246.732 1233.52L246.732 816.457L455.263 455.263L816.457 246.732L1233.53 246.732L1594.72 455.263L1803.25 816.457L1803.25 1233.52L1594.72 1594.72ZM1803.23 1278.37L1803.23 1474.31L1633.54 1572.29L1803.23 1278.37ZM1572.29 1633.54L1474.32 1803.23L1278.37 1803.23L1572.29 1633.54ZM1194.69 1825.66L1024.99 1923.64L855.301 1825.66L1194.69 1825.66ZM771.62 1803.23L575.67 1803.23L477.695 1633.54L771.62 1803.23ZM416.451 1572.29L246.757 1474.31L246.757 1278.37L416.451 1572.29ZM224.32 1194.69L126.351 1024.99L224.32 855.301L224.32 1194.69ZM246.757 771.62L246.757 575.67L416.451 477.695L246.757 771.62ZM477.695 416.451L575.67 246.757L771.62 246.757L477.695 416.451ZM855.301 224.32L1024.99 126.351L1194.69 224.32L855.301 224.32ZM1278.37 246.757L1474.32 246.757L1572.29 416.451L1278.37 246.757ZM1633.54 477.695L1803.23 575.67L1803.23 771.62L1633.54 477.695ZM1825.67 855.301L1923.64 1024.99L1825.67 1194.69L1825.67 855.301ZM1569.45 246.757C1631.9 246.757 1690.6 271.063 1734.78 315.232C1778.92 359.376 1803.25 418.107 1803.26 480.557L1803.26 549.801L1611.13 438.882L1500.21 246.757L1569.45 246.757ZM1107.38 78.7889C1161.47 47.5629 1224.47 39.2759 1284.78 55.4449C1345.1 71.6069 1395.51 110.301 1426.73 164.37L1461.35 224.345L1239.51 224.345L1047.38 113.426L1107.38 78.7889ZM623.226 164.345C654.451 110.251 704.863 71.5819 765.182 55.4199C825.495 39.2569 888.52 47.5389 942.582 78.7699L1002.56 113.376L810.432 224.295L588.595 224.295L623.226 164.345ZM246.757 480.532C246.757 418.082 271.063 359.382 315.232 315.207C359.376 271.063 418.107 246.732 480.557 246.732L549.801 246.732L438.882 438.857L246.757 549.776L246.757 480.532ZM78.7881 942.611C47.5631 888.514 39.2756 825.513 55.4444 765.201C71.6069 704.889 110.301 654.476 164.37 623.251L224.345 588.639L224.345 810.482L113.426 1002.61L78.7881 942.611ZM164.345 1426.76C110.251 1395.53 71.5819 1345.12 55.4194 1284.81C39.2569 1224.49 47.5381 1161.47 78.7694 1107.4L113.376 1047.43L224.295 1239.55L224.295 1461.39L164.345 1426.76ZM480.532 1803.23C418.082 1803.23 359.382 1778.92 315.207 1734.75C271.063 1690.61 246.732 1631.88 246.732 1569.43L246.732 1500.18L438.857 1611.1L549.776 1803.23L480.532 1803.23ZM942.607 1971.19C888.513 2002.42 825.513 2010.71 765.201 1994.54C704.888 1978.38 654.476 1939.68 623.251 1885.61L588.638 1825.64L810.482 1825.64L1002.61 1936.56L942.607 1971.19ZM1426.76 1885.64C1395.53 1939.73 1345.12 1978.4 1284.81 1994.56C1224.5 2010.72 1161.47 2002.44 1107.4 1971.22L1047.43 1936.61L1239.55 1825.69L1461.4 1825.69L1426.76 1885.64ZM1803.23 1569.45C1803.23 1631.9 1778.93 1690.6 1734.75 1734.78C1690.61 1778.92 1631.88 1803.25 1569.43 1803.26L1500.18 1803.26L1611.1 1611.13L1803.23 1500.21L1803.23 1569.45ZM1994.57 1284.78C1978.4 1345.09 1939.71 1395.51 1885.64 1426.73L1825.67 1461.34L1825.67 1239.51L1936.58 1047.38L1971.2 1107.35C2002.42 1161.46 2010.73 1224.47 1994.57 1284.78Z" fill="#31c48d" fill-rule="nonzero" opacity="1" stroke="#31c48d" stroke-linecap="butt" stroke-linejoin="round" stroke-width="20"/>
<g opacity="1">
<path d="M1439.15 1042.22C1439.15 931.406 1390.15 831.879 1312.75 763.976C1244.85 686.576 1145.32 637.571 1034.51 637.571C830.372 637.571 664.294 803.649 664.294 1007.78C664.294 1118.57 713.282 1218.08 790.656 1285.98C858.559 1363.41 958.103 1412.43 1068.94 1412.43C1069.67 1412.43 1070.37 1412.38 1071.1 1412.38C1071.82 1412.38 1072.53 1412.43 1073.25 1412.43C1275.33 1412.43 1439.15 1248.61 1439.15 1046.52C1439.15 1045.8 1439.1 1045.09 1439.1 1044.37C1439.1 1043.65 1439.15 1042.94 1439.15 1042.22ZM809.175 1226.21C772.628 1174.75 750.889 1112.06 750.441 1044.37C751.603 867.781 894.496 724.88 1071.1 723.718C1138.78 724.166 1201.48 745.905 1252.94 782.452C1311.94 839.662 1348.75 919.602 1348.75 1007.78C1348.75 1181.06 1207.78 1322.03 1034.51 1322.03C946.325 1322.03 866.385 1285.22 809.175 1226.21ZM672.903 1007.78C672.903 808.393 835.116 646.18 1034.51 646.18C1119.38 646.18 1197.45 675.642 1259.21 724.785C1203.57 691.312 1138.47 672.009 1068.94 672.009C864.81 672.009 698.732 838.087 698.732 1042.22C698.732 1111.73 718.026 1176.81 751.483 1232.45C702.357 1170.7 672.903 1092.64 672.903 1007.78ZM1068.94 1360.77C982.158 1360.77 903.406 1325.86 845.912 1269.38C899.067 1307.86 964.233 1330.64 1034.51 1330.64C1212.53 1330.64 1357.36 1185.81 1357.36 1007.78C1357.36 937.51 1334.58 872.344 1296.11 819.189C1352.58 876.683 1387.5 955.435 1387.5 1042.22C1387.5 1217.87 1244.6 1360.77 1068.94 1360.77Z" fill="#31c48d" fill-rule="nonzero" opacity="1" stroke="#31c48d" stroke-linecap="butt" stroke-linejoin="round" stroke-width="10"/>
</g>
</g>
</g>
</svg>
