<?xml version="1.0" encoding="UTF-8" standalone="no"?>
<!DOCTYPE svg PUBLIC "-//W3C//DTD SVG 1.1//EN" "http://www.w3.org/Graphics/SVG/1.1/DTD/svg11.dtd">
<!-- Created with Vectornator (http://vectornator.io/) -->
<svg height="100%" stroke-miterlimit="10" style="fill-rule:nonzero;clip-rule:evenodd;stroke-linecap:round;stroke-linejoin:round;" version="1.1" viewBox="0 0 2050 2050" width="100%" xml:space="preserve" xmlns="http://www.w3.org/2000/svg" xmlns:xlink="http://www.w3.org/1999/xlink">
<defs/>
<g id="Untitled">
<g opacity="1">
<path d="M1949.53 1024.99L1990.63 953.831C2061.39 831.282 2019.4 674.582 1896.86 603.82L1825.69 562.726L1825.69 480.532C1825.69 339.038 1710.98 224.32 1569.48 224.32L1487.28 224.32L1446.19 153.151C1375.43 30.6069 1218.73-11.3804 1096.18 59.3819L1024.99 100.457L953.826 59.3569C831.282-11.3804 674.582 30.6069 603.82 153.151L562.726 224.32L480.532 224.32C339.038 224.32 224.32 339.032 224.32 480.532L224.32 562.726L153.151 603.82C30.6069 674.582-11.3806 831.276 59.3819 953.831L100.457 1024.99L59.3569 1096.16C-11.3806 1218.71 30.6069 1375.41 153.151 1446.16L224.32 1487.26L224.32 1569.45C224.32 1710.94 339.032 1825.66 480.532 1825.66L562.726 1825.66L603.82 1896.83C674.582 2019.38 831.276 2061.36 953.826 1990.6L1024.99 1949.53L1096.17 1990.62C1218.71 2061.39 1375.41 2019.4 1446.17 1896.86L1487.27 1825.69L1569.45 1825.69C1710.95 1825.69 1825.67 1710.97 1825.67 1569.47L1825.67 1487.28L1896.83 1446.19C2019.38 1375.42 2061.37 1218.73 1990.6 1096.18L1949.53 1024.99ZM1885.64 623.226C1939.73 654.451 1978.4 704.863 1994.57 765.182C2010.73 825.495 2002.45 888.52 1971.22 942.581L1936.61 1002.56L1825.69 810.432L1825.69 588.595L1885.64 623.226ZM1594.72 1594.72L1233.53 1803.25L816.457 1803.25L455.263 1594.72L246.732 1233.52L246.732 816.457L455.263 455.263L816.457 246.732L1233.53 246.732L1594.72 455.263L1803.25 816.457L1803.25 1233.52L1594.72 1594.72ZM1803.23 1278.37L1803.23 1474.31L1633.54 1572.29L1803.23 1278.37ZM1572.29 1633.54L1474.32 1803.23L1278.37 1803.23L1572.29 1633.54ZM1194.69 1825.66L1024.99 1923.64L855.301 1825.66L1194.69 1825.66ZM771.62 1803.23L575.67 1803.23L477.695 1633.54L771.62 1803.23ZM416.451 1572.29L246.757 1474.31L246.757 1278.37L416.451 1572.29ZM224.32 1194.69L126.351 1024.99L224.32 855.301L224.32 1194.69ZM246.757 771.62L246.757 575.67L416.451 477.695L246.757 771.62ZM477.695 416.451L575.67 246.757L771.62 246.757L477.695 416.451ZM855.301 224.32L1024.99 126.351L1194.69 224.32L855.301 224.32ZM1278.37 246.757L1474.32 246.757L1572.29 416.451L1278.37 246.757ZM1633.54 477.695L1803.23 575.67L1803.23 771.62L1633.54 477.695ZM1825.67 855.301L1923.64 1024.99L1825.67 1194.69L1825.67 855.301ZM1569.45 246.757C1631.9 246.757 1690.6 271.063 1734.78 315.232C1778.92 359.376 1803.25 418.107 1803.26 480.557L1803.26 549.801L1611.13 438.882L1500.21 246.757L1569.45 246.757ZM1107.38 78.7889C1161.47 47.5629 1224.47 39.2759 1284.78 55.4449C1345.1 71.6069 1395.51 110.301 1426.73 164.37L1461.35 224.345L1239.51 224.345L1047.38 113.426L1107.38 78.7889ZM623.226 164.345C654.451 110.251 704.863 71.5819 765.182 55.4199C825.495 39.2569 888.52 47.5389 942.582 78.7699L1002.56 113.376L810.432 224.295L588.595 224.295L623.226 164.345ZM246.757 480.532C246.757 418.082 271.063 359.382 315.232 315.207C359.376 271.063 418.107 246.732 480.557 246.732L549.801 246.732L438.882 438.857L246.757 549.776L246.757 480.532ZM78.7881 942.611C47.5631 888.514 39.2756 825.513 55.4444 765.201C71.6069 704.889 110.301 654.476 164.37 623.251L224.345 588.639L224.345 810.482L113.426 1002.61L78.7881 942.611ZM164.345 1426.76C110.251 1395.53 71.5819 1345.12 55.4194 1284.81C39.2569 1224.49 47.5381 1161.47 78.7694 1107.4L113.376 1047.43L224.295 1239.55L224.295 1461.39L164.345 1426.76ZM480.532 1803.23C418.082 1803.23 359.382 1778.92 315.207 1734.75C271.063 1690.61 246.732 1631.88 246.732 1569.43L246.732 1500.18L438.857 1611.1L549.776 1803.23L480.532 1803.23ZM942.607 1971.19C888.513 2002.42 825.513 2010.71 765.201 1994.54C704.888 1978.38 654.476 1939.68 623.251 1885.61L588.638 1825.64L810.482 1825.64L1002.61 1936.56L942.607 1971.19ZM1426.76 1885.64C1395.53 1939.73 1345.12 1978.4 1284.81 1994.56C1224.5 2010.72 1161.47 2002.44 1107.4 1971.22L1047.43 1936.61L1239.55 1825.69L1461.4 1825.69L1426.76 1885.64ZM1803.23 1569.45C1803.23 1631.9 1778.93 1690.6 1734.75 1734.78C1690.61 1778.92 1631.88 1803.25 1569.43 1803.26L1500.18 1803.26L1611.1 1611.13L1803.23 1500.21L1803.23 1569.45ZM1994.57 1284.78C1978.4 1345.09 1939.71 1395.51 1885.64 1426.73L1825.67 1461.34L1825.67 1239.51L1936.58 1047.38L1971.2 1107.35C2002.42 1161.46 2010.73 1224.47 1994.57 1284.78Z" fill="#31c48d" fill-rule="nonzero" opacity="1" stroke="#31c48d" stroke-linecap="butt" stroke-linejoin="round" stroke-width="20"/>
<g opacity="1">
<path d="M889.696 1300.67L903.628 1501.51L863.282 1501.51L860.089 1419.38C858.928 1398.48 858.348 1378.16 858.348 1358.43L858.348 1358.43C858.348 1349.14 858.444 1342.37 858.638 1338.11L858.638 1338.11L829.612 1480.04L790.136 1480.04L759.659 1337.82C760.239 1350.01 760.529 1362.01 760.529 1373.81L760.529 1373.81C760.529 1383.68 760.142 1399.25 759.368 1420.54L759.368 1420.54L756.175 1501.51L716.119 1501.51L730.052 1300.67L782.589 1300.67L810.745 1439.69L836.578 1300.67L889.696 1300.67ZM1051.08 1347.69L1006.67 1501.8C1001.06 1521.15 992.062 1536.15 979.677 1546.79C967.293 1557.43 950.554 1563.62 929.462 1565.36L929.462 1565.36L925.108 1536.63C938.46 1534.5 948.367 1530.87 954.831 1525.72C961.332 1520.61 966.518 1512.54 970.389 1501.51L970.389 1501.51L955.876 1501.51L913.497 1347.69L955.295 1347.69L981.709 1475.1L1010.44 1347.69L1051.08 1347.69ZM1147.74 1343.04C1159.93 1343.04 1169.45 1347.05 1176.3 1355.06C1183.15 1363.11 1186.58 1374.1 1186.58 1388.03L1186.58 1388.03L1186.58 1501.51L1146.29 1501.51L1146.29 1393.55C1146.29 1386.39 1145.17 1381.26 1142.92 1378.16C1140.72 1375.07 1137.48 1373.52 1133.23 1373.52L1133.23 1373.52C1124.52 1373.52 1116.1 1380.58 1107.97 1394.71L1107.97 1394.71L1107.97 1501.51L1067.63 1501.51L1067.63 1347.69L1102.75 1347.69L1105.65 1367.13C1111.46 1359.2 1117.69 1353.2 1124.35 1349.14C1131 1345.08 1138.8 1343.04 1147.74 1343.04L1147.74 1343.04ZM1302.68 1282.1L1343.03 1286.45L1343.03 1501.51L1307.04 1501.51L1305.29 1483.23C1295.43 1498.51 1282.36 1506.16 1266.11 1506.16L1266.11 1506.16C1248.89 1506.16 1235.73 1499 1226.63 1484.68C1217.54 1470.36 1212.99 1450.34 1212.99 1424.6L1212.99 1424.6C1212.99 1408.35 1215.37 1394.07 1220.13 1381.76C1224.85 1369.49 1231.47 1359.98 1239.99 1353.2C1248.5 1346.43 1258.27 1343.04 1269.3 1343.04L1269.3 1343.04C1282.65 1343.04 1293.78 1348.17 1302.68 1358.43L1302.68 1358.43L1302.68 1282.1ZM1278.01 1476.26C1283.04 1476.26 1287.55 1474.75 1291.54 1471.74C1295.48 1468.76 1299.2 1464.27 1302.68 1458.27L1302.68 1458.27L1302.68 1387.45C1299.2 1382.61 1295.72 1378.98 1292.23 1376.54C1288.75 1374.14 1284.69 1372.94 1280.04 1372.94L1280.04 1372.94C1272.11 1372.94 1265.92 1377.04 1261.47 1385.25C1257.01 1393.49 1254.79 1406.61 1254.79 1424.6L1254.79 1424.6C1254.79 1443.37 1256.82 1456.66 1260.88 1464.48C1264.95 1472.33 1270.66 1476.26 1278.01 1476.26L1278.01 1476.26Z" fill="#31c48d" fill-rule="nonzero" opacity="1" stroke="none"/>
<path d="M1439.15 893.871C1439.15 783.058 1390.15 683.531 1312.75 615.628C1244.85 538.228 1145.32 489.223 1034.51 489.223C830.372 489.223 664.294 655.301 664.294 859.433C664.294 970.221 713.282 1069.73 790.656 1137.63C858.559 1215.06 958.103 1264.08 1068.94 1264.08C1069.67 1264.08 1070.37 1264.03 1071.1 1264.03C1071.82 1264.03 1072.53 1264.08 1073.25 1264.08C1275.33 1264.08 1439.15 1100.26 1439.15 898.176C1439.15 897.452 1439.1 896.746 1439.1 896.023C1439.1 895.3 1439.15 894.594 1439.15 893.871ZM809.175 1077.86C772.628 1026.4 750.889 963.711 750.441 896.023C751.603 719.433 894.496 576.532 1071.1 575.37C1138.78 575.818 1201.48 597.557 1252.94 634.104C1311.94 691.314 1348.75 771.254 1348.75 859.433C1348.75 1032.71 1207.78 1173.68 1034.51 1173.68C946.325 1173.68 866.385 1136.87 809.175 1077.86ZM672.903 859.433C672.903 660.045 835.116 497.832 1034.51 497.832C1119.38 497.832 1197.45 527.294 1259.21 576.437C1203.57 542.964 1138.47 523.661 1068.94 523.661C864.81 523.661 698.732 689.739 698.732 893.871C698.732 963.381 718.026 1028.46 751.483 1084.1C702.357 1022.35 672.903 944.291 672.903 859.433ZM1068.94 1212.42C982.158 1212.42 903.406 1177.51 845.912 1121.03C899.067 1159.51 964.233 1182.29 1034.51 1182.29C1212.53 1182.29 1357.36 1037.46 1357.36 859.433C1357.36 789.162 1334.58 723.996 1296.11 670.841C1352.58 728.335 1387.5 807.087 1387.5 893.871C1387.5 1069.52 1244.6 1212.42 1068.94 1212.42Z" fill="#31c48d" fill-rule="nonzero" opacity="1" stroke="#31c48d" stroke-linecap="butt" stroke-linejoin="round" stroke-width="10"/>
</g>
</g>
</g>
</svg>
